<svg xmlns="http://www.w3.org/2000/svg" fill="none" viewBox="0.26 0.96 79.48 79.48">
<path fill-rule="evenodd" clip-rule="evenodd" d="M78.7413 1.9547C80.0716 3.28492 80.0716 5.44163 78.7413 6.77186L33.3248 52.1885C31.9946 53.5187 29.8379 53.5187 28.5077 52.1885C27.1775 50.8583 27.1775 48.7015 28.5077 47.3713L73.9242 1.9547C75.2544 0.624477 77.4111 0.624474 78.7413 1.9547Z" fill="#E04403"/>
<path fill-rule="evenodd" clip-rule="evenodd" d="M45.677 4.36328C45.677 2.48206 47.202 0.957028 49.0833 0.957031L76.3328 0.957077C78.214 0.95708 79.739 2.48207 79.739 4.36327L79.7395 31.6132C79.7395 33.4944 78.2145 35.0195 76.3333 35.0195C74.4521 35.0196 72.927 33.4946 72.927 31.6133L72.9266 7.76957L49.0833 7.76953C47.202 7.76953 45.677 6.24449 45.677 4.36328Z" fill="#E04403"/>
<path fill-rule="evenodd" clip-rule="evenodd" d="M0.260254 4.36328C0.260254 2.48206 1.78528 0.957031 3.6665 0.957031H30.9165C32.7977 0.957031 34.3228 2.48206 34.3228 4.36328C34.3228 6.2445 32.7977 7.76953 30.9165 7.76953H7.07275V73.6237H72.9269V49.7799C72.9269 47.8987 74.452 46.3737 76.3332 46.3737C78.2144 46.3737 79.7394 47.8987 79.7394 49.7799V77.0299C79.7394 78.9111 78.2144 80.4362 76.3332 80.4362H3.6665C1.78528 80.4362 0.260254 78.9111 0.260254 77.0299V4.36328Z" fill="#E04403"/>
</svg>