<svg xmlns="http://www.w3.org/2000/svg" fill="none" viewBox="0.21 0.44 68.47 59.49">
<path d="M67.2975 0.442871H39.3123C38.8187 0.442871 38.3624 0.693084 38.1156 1.09914L34.4458 7.1365L30.7757 1.09914C30.5288 0.693084 30.0726 0.442871 29.5789 0.442871H1.59407C0.830782 0.442871 0.212158 1.03071 0.212158 1.75541V50.6132C0.212158 51.3382 0.830782 51.9257 1.59407 51.9257H28.781L33.2488 59.2759C33.4959 59.6819 33.9518 59.9321 34.4458 59.9321C34.9394 59.9321 35.3957 59.6817 35.6425 59.2759L40.1105 51.9257H67.2975C68.0605 51.9257 68.6794 51.3382 68.6794 50.6132V1.75541C68.6797 1.03071 68.0605 0.442871 67.2975 0.442871ZM29.5792 49.3007H2.97628V3.06793H28.7813L33.0641 10.1136V53.721L30.7759 49.9569C30.5291 49.5509 30.0729 49.3007 29.5792 49.3007ZM65.9155 49.3007H39.3126C38.8189 49.3007 38.3627 49.5509 38.1159 49.9569L35.828 53.7208V10.1136L40.1108 3.06819H65.9158V49.3007H65.9155Z" fill="url(#paint0_linear_319_1804)"/>
<path d="M27.307 14.8203H8.73275C7.96974 14.8203 7.35083 15.4081 7.35083 16.1331C7.35083 16.8578 7.96974 17.4456 8.73275 17.4456H27.307C28.0703 17.4456 28.689 16.8578 28.689 16.1331C28.6892 15.4079 28.0703 14.8203 27.307 14.8203Z" fill="url(#paint1_linear_319_1804)"/>
<path d="M27.307 24.4736H8.73275C7.96974 24.4736 7.35083 25.0612 7.35083 25.7862C7.35083 26.5111 7.96974 27.0987 8.73275 27.0987H27.307C28.0703 27.0987 28.689 26.5111 28.689 25.7862C28.689 25.0612 28.0703 24.4736 27.307 24.4736Z" fill="url(#paint2_linear_319_1804)"/>
<path d="M27.307 34.127H8.73275C7.96974 34.127 7.35083 34.7145 7.35083 35.4395C7.35083 36.1644 7.96974 36.752 8.73275 36.752H27.307C28.0703 36.752 28.689 36.1644 28.689 35.4395C28.689 34.7145 28.0703 34.127 27.307 34.127Z" fill="url(#paint3_linear_319_1804)"/>
<path d="M41.5846 17.4456H60.1591C60.9221 17.4456 61.541 16.8578 61.541 16.1331C61.541 15.4081 60.9221 14.8203 60.1591 14.8203H41.5846C40.8213 14.8203 40.2026 15.4081 40.2026 16.1331C40.2026 16.8578 40.8213 17.4456 41.5846 17.4456Z" fill="url(#paint4_linear_319_1804)"/>
<path d="M41.5846 27.0987H60.1591C60.9221 27.0987 61.541 26.5111 61.541 25.7862C61.541 25.0612 60.9221 24.4736 60.1591 24.4736H41.5846C40.8213 24.4736 40.2026 25.0612 40.2026 25.7862C40.2026 26.5111 40.8213 27.0987 41.5846 27.0987Z" fill="url(#paint5_linear_319_1804)"/>
<path d="M41.5846 36.7524H60.1591C60.9221 36.7524 61.541 36.1648 61.541 35.4398C61.541 34.7149 60.9221 34.1273 60.1591 34.1273H41.5846C40.8213 34.1273 40.2026 34.7149 40.2026 35.4398C40.2026 36.1648 40.8213 36.7524 41.5846 36.7524Z" fill="url(#paint6_linear_319_1804)"/>
<defs>
<linearGradient id="paint0_linear_319_1804" x1="34.4458" y1="0.442871" x2="34.4458" y2="59.9321" gradientUnits="userSpaceOnUse">
<stop stop-color="#FF8451"/>
<stop offset="1" stop-color="#E04403"/>
</linearGradient>
<linearGradient id="paint1_linear_319_1804" x1="18.0199" y1="14.8203" x2="18.0199" y2="17.4456" gradientUnits="userSpaceOnUse">
<stop stop-color="#FF8451"/>
<stop offset="1" stop-color="#E04403"/>
</linearGradient>
<linearGradient id="paint2_linear_319_1804" x1="18.0199" y1="24.4736" x2="18.0199" y2="27.0987" gradientUnits="userSpaceOnUse">
<stop stop-color="#FF8451"/>
<stop offset="1" stop-color="#E04403"/>
</linearGradient>
<linearGradient id="paint3_linear_319_1804" x1="18.0199" y1="34.127" x2="18.0199" y2="36.752" gradientUnits="userSpaceOnUse">
<stop stop-color="#FF8451"/>
<stop offset="1" stop-color="#E04403"/>
</linearGradient>
<linearGradient id="paint4_linear_319_1804" x1="50.8718" y1="14.8203" x2="50.8718" y2="17.4456" gradientUnits="userSpaceOnUse">
<stop stop-color="#FF8451"/>
<stop offset="1" stop-color="#E04403"/>
</linearGradient>
<linearGradient id="paint5_linear_319_1804" x1="50.8718" y1="24.4736" x2="50.8718" y2="27.0987" gradientUnits="userSpaceOnUse">
<stop stop-color="#FF8451"/>
<stop offset="1" stop-color="#E04403"/>
</linearGradient>
<linearGradient id="paint6_linear_319_1804" x1="50.8718" y1="34.1273" x2="50.8718" y2="36.7524" gradientUnits="userSpaceOnUse">
<stop stop-color="#FF8451"/>
<stop offset="1" stop-color="#E04403"/>
</linearGradient>
</defs>
</svg>