<svg xmlns="http://www.w3.org/2000/svg" fill="none" viewBox="10.37 7.71 45.26 50.58">
<path d="M11.1144 58.292H54.8853C55.083 58.292 55.2726 58.2134 55.4125 58.0736C55.5523 57.9338 55.6308 57.7441 55.6308 57.5464V22.4142C55.6306 22.3087 55.6077 22.2045 55.5638 22.1085L49.9827 8.22837C49.9347 8.07754 49.8401 7.94587 49.7123 7.85243C49.5846 7.75899 49.4304 7.70863 49.2722 7.70862H16.728C16.5795 7.70869 16.4344 7.75322 16.3114 7.83648C16.1885 7.91974 16.0933 8.03792 16.0381 8.17577L10.4456 22.0853C10.4415 22.0935 10.4399 22.1028 10.4363 22.1116C10.4327 22.1203 10.4275 22.1368 10.4229 22.1492C10.3895 22.2336 10.372 22.3235 10.3713 22.4142V57.5438C10.371 57.6417 10.39 57.7387 10.4271 57.8293C10.4643 57.9199 10.5189 58.0023 10.5879 58.0718C10.6569 58.1412 10.7389 58.1964 10.8292 58.2342C10.9196 58.272 11.0164 58.2916 11.1144 58.292ZM30.4503 56.8008V53.492L30.6756 53.6668L32.5437 55.1167C32.676 55.2189 32.8387 55.2735 33.0058 55.2718C33.1729 55.2702 33.3345 55.2122 33.4646 55.1075L35.3209 53.6673L35.5462 53.4925V56.8013L30.4503 56.8008ZM54.1381 56.8008H37.039V51.9725C37.0391 51.8334 37.0002 51.6972 36.9268 51.5792C36.8534 51.4611 36.7483 51.3661 36.6235 51.3048C36.4987 51.2435 36.3593 51.2185 36.221 51.2325C36.0827 51.2465 35.9511 51.299 35.8412 51.3841L34.4134 52.4907L33.0001 53.5874L31.5862 52.4907L30.208 51.4212C30.1011 51.324 29.9683 51.26 29.8256 51.2368C29.683 51.2137 29.5368 51.2325 29.4046 51.2909C29.2725 51.3494 29.1602 51.445 29.0814 51.566C29.0026 51.6871 28.9606 51.8285 28.9607 51.973V56.8013H11.8594V23.1593H28.9612V27.9871C28.9611 28.1316 29.0031 28.273 29.0819 28.3941C29.1607 28.5151 29.273 28.6107 29.4052 28.6692C29.5373 28.7276 29.6835 28.7464 29.8262 28.7233C29.9688 28.7001 30.1016 28.6361 30.2085 28.5388L31.5867 27.4694L33.0001 26.3727L34.4134 27.4699L35.8391 28.576C35.949 28.661 36.0806 28.7136 36.2189 28.7276C36.3572 28.7416 36.4967 28.7166 36.6214 28.6553C36.7462 28.594 36.8513 28.499 36.9247 28.3809C36.9982 28.2629 37.037 28.1266 37.0369 27.9876V23.1593H54.1407L54.1381 56.8008ZM30.4524 23.1593H35.5478V26.4681L35.3224 26.2933L33.4662 24.8532C33.3361 24.7484 33.1745 24.6904 33.0074 24.6886C32.8404 24.6869 32.6776 24.7414 32.5453 24.8434L30.6797 26.2933L30.4544 26.4681L30.4524 23.1593ZM53.7844 21.6681H36.9827L36.0237 9.19877H48.7699L53.7844 21.6681ZM33.0001 9.19929H34.5304L35.4895 21.6686H30.5106L31.4697 9.19929H33.0001ZM17.2297 9.19929H29.9759L29.0169 21.6686H12.2157L17.2297 9.19929Z" fill="#E04403"/>
<path d="M27.5716 37.5803C27.2565 37.5803 26.9445 37.6425 26.6536 37.7634C26.3627 37.8842 26.0985 38.0614 25.8762 38.2847C25.6529 38.5067 25.4756 38.7706 25.3545 39.0613C25.2334 39.3519 25.1708 39.6636 25.1703 39.9785C25.1718 40.6145 25.4251 41.224 25.8748 41.6737C26.3245 42.1234 26.934 42.3767 27.57 42.3782H38.4286C39.0421 42.3775 39.6319 42.141 40.076 41.7177C40.0925 41.7038 40.1085 41.6893 40.1239 41.6739C40.3472 41.4515 40.5243 41.1873 40.6451 40.8964C40.766 40.6055 40.8282 40.2935 40.8283 39.9785C40.8273 39.3443 40.5748 38.7364 40.126 38.2883C39.904 38.0654 39.6403 37.8885 39.35 37.7676C39.0596 37.6468 38.7482 37.5844 38.4337 37.5839L27.5716 37.5803ZM39.07 39.3386C39.1541 39.4228 39.2207 39.5227 39.2661 39.6327C39.3115 39.7427 39.3347 39.8605 39.3345 39.9795C39.3343 40.0987 39.3106 40.2166 39.2648 40.3266C39.2189 40.4365 39.1519 40.5364 39.0674 40.6204L39.0385 40.6504C38.8713 40.8034 38.6527 40.888 38.426 40.8875H27.5716C27.331 40.8863 27.1006 40.7902 26.9305 40.6201C26.7604 40.45 26.6642 40.2196 26.663 39.979C26.6627 39.86 26.6859 39.7421 26.7313 39.6322C26.7767 39.5222 26.8434 39.4222 26.9275 39.3381C27.0115 39.2536 27.1114 39.1865 27.2214 39.1407C27.3314 39.0948 27.4493 39.0712 27.5685 39.071H38.4286C38.5475 39.0708 38.6654 39.094 38.7754 39.1394C38.8854 39.1848 38.9853 39.2514 39.0695 39.3355L39.07 39.3386Z" fill="#E04403"/>
</svg>