<svg xmlns="http://www.w3.org/2000/svg" fill="none" viewBox="0.5 0.98 68.47 84.41">
<path d="M42.3065 76.6892H27.1708C26.2297 76.6892 25.467 75.9264 25.467 74.9854C25.467 68.6782 22.8898 63.1639 17.3568 57.6305C12.7135 52.9876 10.1567 46.8144 10.1567 40.2483C10.1564 33.6822 12.7135 27.509 17.3568 22.8661C21.9997 18.2231 28.173 15.666 34.739 15.666C41.3051 15.666 47.478 18.2231 52.1213 22.8661C56.7642 27.509 59.3209 33.6822 59.3209 40.2483C59.3209 46.8144 56.7642 52.9876 52.1213 57.6305C46.5882 63.1636 44.0107 68.6782 44.0107 74.9854C44.0103 75.9261 43.2476 76.6892 42.3065 76.6892ZM28.817 73.2812H40.6607C40.8897 69.918 41.8002 66.6766 43.3753 63.6237C44.8591 60.7494 46.9314 58.0005 49.7113 55.2206C57.9673 46.9646 57.9673 33.5313 49.7116 25.2757C45.712 21.2764 40.3945 19.0736 34.739 19.0736C29.0828 19.0736 23.7656 21.2764 19.7664 25.2757C11.5108 33.5313 11.5108 46.9646 19.7664 55.2206C22.5463 58.0005 24.6186 60.7491 26.102 63.6237C27.6774 66.6766 28.5876 69.918 28.817 73.2812Z" fill="url(#paint0_linear_319_1813)"/>
<path d="M45.2938 52.5071C44.8576 52.5071 44.4214 52.3409 44.089 52.0081C43.4235 51.3429 43.4235 50.264 44.089 49.5988C49.2445 44.4433 49.2445 36.0545 44.089 30.8986C43.4235 30.2331 43.4235 29.1542 44.089 28.489C44.7546 27.8238 45.8334 27.8235 46.4986 28.489C52.9828 34.9735 52.9828 45.5239 46.4983 52.0081C46.1655 52.3409 45.73 52.5071 45.2938 52.5071Z" fill="url(#paint1_linear_319_1813)"/>
<path d="M42.3066 85.3944H27.1708C26.2298 85.3944 25.467 84.6317 25.467 83.6906C25.467 82.7495 26.2298 81.9868 27.1708 81.9868H42.3066C43.2476 81.9868 44.0104 82.7495 44.0104 83.6906C44.0104 84.6317 43.2476 85.3944 42.3066 85.3944Z" fill="url(#paint2_linear_319_1813)"/>
<path d="M34.739 11.8791C33.7979 11.8791 33.0352 11.1164 33.0352 10.1753V2.68452C33.0352 1.74343 33.7979 0.980713 34.739 0.980713C35.6797 0.980713 36.4428 1.74343 36.4428 2.68452V10.1753C36.4428 11.1164 35.6797 11.8791 34.739 11.8791Z" fill="url(#paint3_linear_319_1813)"/>
<path d="M19.7039 15.9087C19.1154 15.9087 18.5425 15.603 18.2271 15.0565L14.4815 8.56919C14.0109 7.75407 14.2903 6.71201 15.1051 6.24182C15.9202 5.77128 16.9622 6.05027 17.4328 6.86539L21.178 13.3527C21.6486 14.1678 21.3692 15.2099 20.5544 15.68C20.2859 15.8348 19.9933 15.9087 19.7039 15.9087Z" fill="url(#paint4_linear_319_1813)"/>
<path d="M8.69297 26.916C8.40426 26.916 8.11104 26.8424 7.84315 26.6873L1.35587 22.942C0.540751 22.4719 0.261753 21.4295 0.732294 20.6143C1.20249 19.7996 2.24455 19.5202 3.05967 19.9908L9.54695 23.7363C10.3617 24.2065 10.6407 25.2486 10.1705 26.0637C9.85475 26.6103 9.28184 26.916 8.69297 26.916Z" fill="url(#paint5_linear_319_1813)"/>
<path d="M49.7737 15.9087C49.4846 15.9087 49.1917 15.8348 48.9235 15.68C48.1084 15.2099 47.8294 14.1678 48.2999 13.3527L52.0452 6.86539C52.5154 6.05027 53.5574 5.77128 54.3725 6.24182C55.1873 6.71201 55.4666 7.75407 54.9961 8.56919L51.2509 15.0565C50.9354 15.6027 50.3625 15.9087 49.7737 15.9087Z" fill="url(#paint6_linear_319_1813)"/>
<path d="M60.7842 26.9158C60.1953 26.9158 59.6224 26.6101 59.307 26.0636C58.8365 25.2484 59.1155 24.2064 59.9306 23.7362L66.4179 19.9906C67.2326 19.5201 68.275 19.799 68.7452 20.6142C69.2154 21.4293 68.9364 22.4717 68.1217 22.9419L61.6344 26.6871C61.3661 26.8422 61.0733 26.9158 60.7842 26.9158Z" fill="url(#paint7_linear_319_1813)"/>
<defs>
<linearGradient id="paint0_linear_319_1813" x1="34.7388" y1="15.666" x2="34.7388" y2="76.6892" gradientUnits="userSpaceOnUse">
<stop stop-color="#FF8450"/>
<stop offset="1" stop-color="#E24808"/>
</linearGradient>
<linearGradient id="paint1_linear_319_1813" x1="47.4758" y1="27.99" x2="47.4758" y2="52.5071" gradientUnits="userSpaceOnUse">
<stop stop-color="#FF8450"/>
<stop offset="1" stop-color="#E24808"/>
</linearGradient>
<linearGradient id="paint2_linear_319_1813" x1="34.7387" y1="81.9868" x2="34.7387" y2="85.3944" gradientUnits="userSpaceOnUse">
<stop stop-color="#FF8450"/>
<stop offset="1" stop-color="#E24808"/>
</linearGradient>
<linearGradient id="paint3_linear_319_1813" x1="34.739" y1="0.980713" x2="34.739" y2="11.8791" gradientUnits="userSpaceOnUse">
<stop stop-color="#FF8450"/>
<stop offset="1" stop-color="#E24808"/>
</linearGradient>
<linearGradient id="paint4_linear_319_1813" x1="17.8298" y1="6.01318" x2="17.8298" y2="15.9087" gradientUnits="userSpaceOnUse">
<stop stop-color="#FF8450"/>
<stop offset="1" stop-color="#E24808"/>
</linearGradient>
<linearGradient id="paint5_linear_319_1813" x1="5.45129" y1="19.7622" x2="5.45129" y2="26.916" gradientUnits="userSpaceOnUse">
<stop stop-color="#FF8450"/>
<stop offset="1" stop-color="#E24808"/>
</linearGradient>
<linearGradient id="paint6_linear_319_1813" x1="51.648" y1="6.01318" x2="51.648" y2="15.9087" gradientUnits="userSpaceOnUse">
<stop stop-color="#FF8450"/>
<stop offset="1" stop-color="#E24808"/>
</linearGradient>
<linearGradient id="paint7_linear_319_1813" x1="64.026" y1="19.762" x2="64.026" y2="26.9158" gradientUnits="userSpaceOnUse">
<stop stop-color="#FF8450"/>
<stop offset="1" stop-color="#E24808"/>
</linearGradient>
</defs>
</svg>