<svg xmlns="http://www.w3.org/2000/svg" fill="none" viewBox="0 0 37.5 53.78">
<path fill-rule="evenodd" clip-rule="evenodd" d="M5.11159 1.42776C3.07707 1.42776 1.42776 3.07707 1.42776 5.11159V48.6678C1.42776 50.7024 3.07707 52.3517 5.11159 52.3517H32.3835C34.418 52.3517 36.0673 50.7024 36.0673 48.6678V5.11159C36.0673 3.07707 34.418 1.42776 32.3835 1.42776H5.11159ZM0.54541 5.11159C0.54541 2.58976 2.58976 0.54541 5.11159 0.54541H32.3835C34.9053 0.54541 36.9496 2.58976 36.9496 5.11159V48.6678C36.9496 51.1897 34.9053 53.234 32.3835 53.234H5.11159C2.58976 53.234 0.54541 51.1897 0.54541 48.6678V5.11159Z" fill="#E04403"/>
<path fill-rule="evenodd" clip-rule="evenodd" d="M0 5.11163C0 2.28855 2.28856 0 5.11163 0H32.3835C35.2066 0 37.4951 2.28856 37.4951 5.11163V48.6679C37.4951 51.4909 35.2066 53.7795 32.3835 53.7795H5.11163C2.28856 53.7795 0 51.4909 0 48.6679V5.11163ZM5.11163 1.97326C3.37836 1.97326 1.97326 3.37836 1.97326 5.11163V48.6679C1.97326 50.4011 3.37836 51.8062 5.11163 51.8062H32.3835C34.1168 51.8062 35.5219 50.4011 35.5219 48.6679V5.11163C35.5219 3.37836 34.1168 1.97326 32.3835 1.97326H5.11163Z" fill="#E04403"/>
<path fill-rule="evenodd" clip-rule="evenodd" d="M6.44286 6.26529C6.26712 6.26529 6.12466 6.40775 6.12466 6.58349V15.4991C6.12466 15.6748 6.26712 15.8173 6.44286 15.8173H31.0428C31.2186 15.8173 31.361 15.6748 31.361 15.4991V6.58349C31.361 6.40775 31.2186 6.26529 31.0428 6.26529H6.44286ZM5.24231 6.58349C5.24231 5.92044 5.77981 5.38293 6.44286 5.38293H31.0428C31.7059 5.38293 32.2434 5.92044 32.2434 6.58349V15.4991C32.2434 16.1622 31.7059 16.6997 31.0428 16.6997H6.44286C5.77981 16.6997 5.24231 16.1622 5.24231 15.4991V6.58349Z" fill="#E04403"/>
<path fill-rule="evenodd" clip-rule="evenodd" d="M4.69678 6.58353C4.69678 5.61924 5.47849 4.83752 6.44278 4.83752H31.0428C32.0071 4.83752 32.7888 5.61923 32.7888 6.58353V15.4992C32.7888 16.4634 32.0071 17.2452 31.0428 17.2452H6.44278C5.47849 17.2452 4.69678 16.4634 4.69678 15.4992V6.58353ZM6.67004 6.81079V15.2719H30.8155V6.81079H6.67004Z" fill="#E04403"/>
<path fill-rule="evenodd" clip-rule="evenodd" d="M7.93361 32.234C6.88285 32.234 6.03103 33.0858 6.03103 34.1366V44.6554C6.03103 45.7061 6.88285 46.5579 7.93361 46.5579H7.94298C8.99375 46.5579 9.84556 45.7061 9.84556 44.6554V34.1366C9.84556 33.0858 8.99375 32.234 7.94298 32.234H7.93361ZM5.14868 34.1366C5.14868 32.5985 6.39554 31.3517 7.93361 31.3517H7.94298C9.48106 31.3517 10.7279 32.5985 10.7279 34.1366V44.6554C10.7279 46.1934 9.48106 47.4403 7.94298 47.4403H7.93361C6.39554 47.4403 5.14868 46.1934 5.14868 44.6554V34.1366Z" fill="#E04403"/>
<path fill-rule="evenodd" clip-rule="evenodd" d="M4.60303 34.1367C4.60303 32.2973 6.09409 30.8063 7.93341 30.8063H7.94278C9.7821 30.8063 11.2732 32.2973 11.2732 34.1367V44.6554C11.2732 46.4947 9.7821 47.9858 7.94278 47.9858H7.93341C6.09409 47.9858 4.60303 46.4947 4.60303 44.6554V34.1367ZM7.93341 32.7795C7.18389 32.7795 6.57629 33.3871 6.57629 34.1367V44.6554C6.57629 45.4049 7.18389 46.0125 7.93341 46.0125H7.94278C8.6923 46.0125 9.2999 45.4049 9.2999 44.6554V34.1367C9.2999 33.3871 8.6923 32.7795 7.94278 32.7795H7.93341Z" fill="#E04403"/>
<path fill-rule="evenodd" clip-rule="evenodd" d="M18.743 42.2653C17.4437 42.2653 16.3904 43.3186 16.3904 44.6179C16.3904 45.9171 17.4437 46.9704 18.743 46.9704C20.0423 46.9704 21.0956 45.9171 21.0956 44.6179C21.0956 43.3186 20.0423 42.2653 18.743 42.2653ZM15.5081 44.6179C15.5081 42.8313 16.9564 41.3829 18.743 41.3829C20.5296 41.3829 21.9779 42.8313 21.9779 44.6179C21.9779 46.4045 20.5296 47.8528 18.743 47.8528C16.9564 47.8528 15.5081 46.4045 15.5081 44.6179Z" fill="#E04403"/>
<path fill-rule="evenodd" clip-rule="evenodd" d="M14.9625 44.6179C14.9625 42.5301 16.6551 40.8375 18.7429 40.8375C20.8308 40.8375 22.5233 42.5301 22.5233 44.6179C22.5233 46.7058 20.8308 48.3983 18.7429 48.3983C16.6551 48.3983 14.9625 46.7058 14.9625 44.6179ZM18.7429 42.8108C17.7449 42.8108 16.9358 43.6199 16.9358 44.6179C16.9358 45.6159 17.7449 46.425 18.7429 46.425C19.741 46.425 20.55 45.6159 20.55 44.6179C20.55 43.6199 19.741 42.8108 18.7429 42.8108Z" fill="#E04403"/>
<path fill-rule="evenodd" clip-rule="evenodd" d="M18.743 32.234C17.4437 32.234 16.3904 33.2873 16.3904 34.5866C16.3904 35.8859 17.4437 36.9392 18.743 36.9392C20.0423 36.9392 21.0956 35.8859 21.0956 34.5866C21.0956 33.2873 20.0423 32.234 18.743 32.234ZM15.5081 34.5866C15.5081 32.8 16.9564 31.3517 18.743 31.3517C20.5296 31.3517 21.9779 32.8 21.9779 34.5866C21.9779 36.3732 20.5296 37.8215 18.743 37.8215C16.9564 37.8215 15.5081 36.3732 15.5081 34.5866Z" fill="#E04403"/>
<path fill-rule="evenodd" clip-rule="evenodd" d="M14.9625 34.5867C14.9625 32.4988 16.6551 30.8063 18.7429 30.8063C20.8308 30.8063 22.5233 32.4988 22.5233 34.5867C22.5233 36.6745 20.8308 38.367 18.7429 38.367C16.6551 38.367 14.9625 36.6745 14.9625 34.5867ZM18.7429 32.7795C17.7449 32.7795 16.9358 33.5886 16.9358 34.5867C16.9358 35.5847 17.7449 36.3938 18.7429 36.3938C19.741 36.3938 20.55 35.5847 20.55 34.5867C20.55 33.5886 19.741 32.7795 18.7429 32.7795Z" fill="#E04403"/>
<path fill-rule="evenodd" clip-rule="evenodd" d="M28.9147 32.234C27.6154 32.234 26.5622 33.2873 26.5622 34.5866C26.5622 35.8859 27.6154 36.9392 28.9147 36.9392C30.214 36.9392 31.2673 35.8859 31.2673 34.5866C31.2673 33.2873 30.214 32.234 28.9147 32.234ZM25.6798 34.5866C25.6798 32.8 27.1281 31.3517 28.9147 31.3517C30.7013 31.3517 32.1497 32.8 32.1497 34.5866C32.1497 36.3732 30.7013 37.8215 28.9147 37.8215C27.1281 37.8215 25.6798 36.3732 25.6798 34.5866Z" fill="#E04403"/>
<path fill-rule="evenodd" clip-rule="evenodd" d="M25.1343 34.5867C25.1343 32.4988 26.8268 30.8063 28.9147 30.8063C31.0025 30.8063 32.695 32.4988 32.695 34.5867C32.695 36.6745 31.0025 38.367 28.9147 38.367C26.8268 38.367 25.1343 36.6745 25.1343 34.5867ZM28.9147 32.7795C27.9166 32.7795 27.1075 33.5886 27.1075 34.5867C27.1075 35.5847 27.9166 36.3938 28.9147 36.3938C29.9127 36.3938 30.7218 35.5847 30.7218 34.5867C30.7218 33.5886 29.9127 32.7795 28.9147 32.7795Z" fill="#E04403"/>
<path fill-rule="evenodd" clip-rule="evenodd" d="M28.9147 42.2653C27.6154 42.2653 26.5622 43.3186 26.5622 44.6179C26.5622 45.9171 27.6154 46.9704 28.9147 46.9704C30.214 46.9704 31.2673 45.9171 31.2673 44.6179C31.2673 43.3186 30.214 42.2653 28.9147 42.2653ZM25.6798 44.6179C25.6798 42.8313 27.1281 41.3829 28.9147 41.3829C30.7013 41.3829 32.1497 42.8313 32.1497 44.6179C32.1497 46.4045 30.7013 47.8528 28.9147 47.8528C27.1281 47.8528 25.6798 46.4045 25.6798 44.6179Z" fill="#E04403"/>
<path fill-rule="evenodd" clip-rule="evenodd" d="M25.1343 44.6179C25.1343 42.5301 26.8268 40.8375 28.9147 40.8375C31.0025 40.8375 32.695 42.5301 32.695 44.6179C32.695 46.7058 31.0025 48.3983 28.9147 48.3983C26.8268 48.3983 25.1343 46.7058 25.1343 44.6179ZM28.9147 42.8108C27.9166 42.8108 27.1075 43.6199 27.1075 44.6179C27.1075 45.6159 27.9166 46.425 28.9147 46.425C29.9127 46.425 30.7218 45.6159 30.7218 44.6179C30.7218 43.6199 29.9127 42.8108 28.9147 42.8108Z" fill="#E04403"/>
<path fill-rule="evenodd" clip-rule="evenodd" d="M18.743 22.2591C17.4437 22.2591 16.3904 23.3123 16.3904 24.6116C16.3904 25.9109 17.4437 26.9642 18.743 26.9642C20.0423 26.9642 21.0956 25.9109 21.0956 24.6116C21.0956 23.3123 20.0423 22.2591 18.743 22.2591ZM15.5081 24.6116C15.5081 22.825 16.9564 21.3767 18.743 21.3767C20.5296 21.3767 21.9779 22.825 21.9779 24.6116C21.9779 26.3982 20.5296 27.8466 18.743 27.8466C16.9564 27.8466 15.5081 26.3982 15.5081 24.6116Z" fill="#E04403"/>
<path fill-rule="evenodd" clip-rule="evenodd" d="M14.9625 24.6117C14.9625 22.5238 16.6551 20.8313 18.7429 20.8313C20.8308 20.8313 22.5233 22.5238 22.5233 24.6117C22.5233 26.6995 20.8308 28.3921 18.7429 28.3921C16.6551 28.3921 14.9625 26.6995 14.9625 24.6117ZM18.7429 22.8046C17.7449 22.8046 16.9358 23.6136 16.9358 24.6117C16.9358 25.6097 17.7449 26.4188 18.7429 26.4188C19.741 26.4188 20.55 25.6097 20.55 24.6117C20.55 23.6136 19.741 22.8046 18.7429 22.8046Z" fill="#E04403"/>
<path fill-rule="evenodd" clip-rule="evenodd" d="M7.94294 22.2591C6.64365 22.2591 5.59036 23.3123 5.59036 24.6116C5.59036 25.9109 6.64365 26.9642 7.94294 26.9642C9.24223 26.9642 10.2955 25.9109 10.2955 24.6116C10.2955 23.3123 9.24223 22.2591 7.94294 22.2591ZM4.70801 24.6116C4.70801 22.825 6.15634 21.3767 7.94294 21.3767C9.72954 21.3767 11.1779 22.825 11.1779 24.6116C11.1779 26.3982 9.72954 27.8466 7.94294 27.8466C6.15634 27.8466 4.70801 26.3982 4.70801 24.6116Z" fill="#E04403"/>
<path fill-rule="evenodd" clip-rule="evenodd" d="M4.16248 24.6117C4.16248 22.5238 5.85501 20.8313 7.94286 20.8313C10.0307 20.8313 11.7232 22.5238 11.7232 24.6117C11.7232 26.6995 10.0307 28.3921 7.94286 28.3921C5.85501 28.3921 4.16248 26.6995 4.16248 24.6117ZM7.94286 22.8046C6.94481 22.8046 6.13574 23.6136 6.13574 24.6117C6.13574 25.6097 6.94481 26.4188 7.94286 26.4188C8.9409 26.4188 9.74998 25.6097 9.74998 24.6117C9.74998 23.6136 8.9409 22.8046 7.94286 22.8046Z" fill="#E04403"/>
<path fill-rule="evenodd" clip-rule="evenodd" d="M28.9147 22.2591C27.6154 22.2591 26.5622 23.3123 26.5622 24.6116C26.5622 25.9109 27.6154 26.9642 28.9147 26.9642C30.214 26.9642 31.2673 25.9109 31.2673 24.6116C31.2673 23.3123 30.214 22.2591 28.9147 22.2591ZM25.6798 24.6116C25.6798 22.825 27.1281 21.3767 28.9147 21.3767C30.7013 21.3767 32.1497 22.825 32.1497 24.6116C32.1497 26.3982 30.7013 27.8466 28.9147 27.8466C27.1281 27.8466 25.6798 26.3982 25.6798 24.6116Z" fill="#E04403"/>
<path fill-rule="evenodd" clip-rule="evenodd" d="M25.1343 24.6117C25.1343 22.5238 26.8268 20.8313 28.9147 20.8313C31.0025 20.8313 32.695 22.5238 32.695 24.6117C32.695 26.6995 31.0025 28.3921 28.9147 28.3921C26.8268 28.3921 25.1343 26.6995 25.1343 24.6117ZM28.9147 22.8046C27.9166 22.8046 27.1075 23.6136 27.1075 24.6117C27.1075 25.6097 27.9166 26.4188 28.9147 26.4188C29.9127 26.4188 30.7218 25.6097 30.7218 24.6117C30.7218 23.6136 29.9127 22.8046 28.9147 22.8046Z" fill="#E04403"/>
</svg>