<svg xmlns="http://www.w3.org/2000/svg" fill="none" viewBox="0.25 0.25 17.5 19.5">
<path fill-rule="evenodd" clip-rule="evenodd" d="M9 19C13.4183 17 17 13.4183 17 9C17 4.58172 13.4183 1 9 1C4.58172 1 1 4.58172 1 9C1 13.4183 4.58172 17 9 19ZM9 12C10.6569 12 12 10.6569 12 9C12 7.34315 10.6569 6 9 6C7.3431 6 6 7.34315 6 9C6 10.6569 7.3431 12 9 12Z" fill="white"/>
<path d="M9 12C10.6569 12 12 10.6569 12 9C12 7.34315 10.6569 6 9 6C7.3431 6 6 7.34315 6 9C6 10.6569 7.3431 12 9 12Z" stroke="white" stroke-width="1.5" stroke-linecap="round" stroke-linejoin="round"/>
<path d="M9 19C13.4183 17 17 13.4183 17 9C17 4.58172 13.4183 1 9 1C4.58172 1 1 4.58172 1 9C1 13.4183 4.58172 17 9 19Z" stroke="white" stroke-width="1.5" stroke-linecap="round" stroke-linejoin="round"/>
</svg>