<svg xmlns="http://www.w3.org/2000/svg" fill="none" viewBox="0.4 0.15 64 64">
<path fill-rule="evenodd" clip-rule="evenodd" d="M55.2563 30.0271H55.9192C56.4813 30.0241 57.0385 30.1326 57.5584 30.3463C58.0784 30.56 58.5508 30.8748 58.9483 31.2723C59.3458 31.6698 59.6605 32.1422 59.8743 32.6621C60.088 33.1821 60.1965 33.7392 60.1935 34.3014V39.5585C60.1965 39.8415 60.143 40.1223 60.0361 40.3844C59.9292 40.6464 59.7711 40.8845 59.571 41.0846C59.3708 41.2848 59.1328 41.4429 58.8707 41.5498C58.6087 41.6567 58.3279 41.7102 58.0449 41.7071H55.2563C55.2563 37.8214 55.2563 33.9357 55.2563 30.0728V30.0271ZM8.99346 30.0271H9.70203C9.70203 33.9128 9.70203 37.7985 9.70203 41.7071H6.82203C6.53902 41.7102 6.25826 41.6567 5.9962 41.5498C5.73414 41.4429 5.49606 41.2848 5.29594 41.0846C5.09581 40.8845 4.93767 40.6464 4.83077 40.3844C4.72388 40.1223 4.6704 39.8415 4.67346 39.5585V34.3014C4.67043 33.7392 4.77891 33.1821 4.99264 32.6621C5.20637 32.1422 5.5211 31.6698 5.91861 31.2723C6.31612 30.8748 6.78852 30.56 7.30846 30.3463C7.82841 30.1326 8.38559 30.0241 8.94774 30.0271H8.99346ZM42.4563 28.1528L43.302 30.7128C43.4493 31.1345 43.7244 31.4999 44.089 31.7579C44.4536 32.016 44.8896 32.1541 45.3363 32.1528H51.0963V44.61L38.8906 50.7357H30.1135C29.5848 50.7904 29.0951 51.0392 28.7392 51.4339C28.3832 51.8286 28.1862 52.3413 28.1862 52.8728C28.1862 53.4043 28.3832 53.917 28.7392 54.3117C29.0951 54.7064 29.5848 54.9552 30.1135 55.01H39.2563C39.5901 55.0128 39.9196 54.9343 40.2163 54.7814L49.4963 50.21C48.4534 52.0444 47.082 53.6715 45.4506 55.01C41.805 58.1177 37.1891 59.8558 32.3992 59.9242C27.6487 59.8294 23.0775 58.093 19.462 55.01C17.8723 53.8302 16.5526 52.3249 15.5909 50.5945C14.6291 48.8642 14.0475 46.9486 13.8849 44.9757V32.1528H38.3649C38.7018 32.156 39.0343 32.0763 39.3332 31.9209C39.6321 31.7655 39.8883 31.539 40.0792 31.2614L42.4563 28.1528ZM32.3992 13.5928C36.584 13.5826 40.6485 14.9923 43.9284 17.5913C47.2084 20.1903 49.5097 23.825 50.4563 27.9014H46.822L45.1763 23.01C45.0282 22.5688 44.7409 22.1877 44.3575 21.9239C43.9742 21.6601 43.5155 21.5279 43.0506 21.5471C42.7323 21.561 42.4212 21.6463 42.1403 21.7966C41.8594 21.947 41.6159 22.1585 41.4277 22.4157L37.3135 27.97H14.4563C15.3926 23.9039 17.6733 20.2726 20.9294 17.6635C24.1856 15.0544 28.2268 13.6202 32.3992 13.5928V13.5928ZM26.6392 4.44997H38.0677C39.7544 4.44395 41.4257 4.77134 42.9854 5.41333C44.5452 6.05532 45.9626 6.99926 47.1564 8.19087C48.3501 9.38248 49.2966 10.7983 49.9413 12.3569C50.5861 13.9155 50.9165 15.5861 50.9135 17.2728V18.9643C48.7979 16.0103 46.0085 13.6033 42.7768 11.9427C39.545 10.2822 35.964 9.416 32.3306 9.416C28.6972 9.416 25.1162 10.2822 21.8844 11.9427C18.6527 13.6033 15.8633 16.0103 13.7477 18.9643V17.2043C13.7446 15.5079 14.0787 13.8278 14.7305 12.2616C15.3824 10.6955 16.3391 9.27455 17.545 8.08142C18.7509 6.88829 20.182 5.94676 21.7549 5.31157C23.3279 4.67638 25.0115 4.36019 26.7077 4.3814L26.6392 4.44997ZM26.6392 0.175689C22.1184 0.18166 17.7835 1.97548 14.5805 5.16571C11.3774 8.35593 9.56617 12.6836 9.54203 17.2043V25.7528H8.94774C6.68237 25.7589 4.51152 26.6614 2.90965 28.2633C1.30779 29.8652 0.405203 32.036 0.39917 34.3014V39.5585C0.41114 41.2583 1.09168 42.885 2.29361 44.087C3.49554 45.2889 5.12228 45.9694 6.82203 45.9814H9.67917C9.97285 48.4125 10.7488 50.7604 11.9616 52.8877C13.1744 55.015 14.7996 56.8789 16.742 58.37C21.1333 62.0537 26.6677 64.0978 32.3992 64.1528C38.1592 64.097 43.7199 62.036 48.1249 58.3243C50.0795 56.8492 51.7179 54.9966 52.9429 52.8764C54.1679 50.7561 54.9546 48.4114 55.2563 45.9814H57.9992C59.6968 45.9694 61.3211 45.2881 62.5194 44.0855C63.7177 42.883 64.3932 41.2562 64.3992 39.5585V34.3014C64.3932 32.04 63.4937 29.8726 61.8968 28.2713C60.2999 26.6701 58.1349 25.7649 55.8735 25.7528H55.2563V17.2043C55.2383 12.6875 53.436 8.36088 50.2421 5.16703C47.0483 1.97317 42.7216 0.170887 38.2049 0.152832L26.6392 0.175689Z" fill="white"/>
</svg>