<svg xmlns="http://www.w3.org/2000/svg" fill="none" viewBox="0.75 0.87 21.89 21.88">
<path d="M11.6997 6.2019C8.59424 6.2019 6.08935 8.70679 6.08935 11.8123C6.08935 14.9177 8.59424 17.4226 11.6997 17.4226C14.8052 17.4226 17.3101 14.9177 17.3101 11.8123C17.3101 8.70679 14.8052 6.2019 11.6997 6.2019ZM11.6997 15.4597C9.69287 15.4597 8.05225 13.824 8.05225 11.8123C8.05225 9.80054 9.68799 8.16479 11.6997 8.16479C13.7114 8.16479 15.3472 9.80054 15.3472 11.8123C15.3472 13.824 13.7065 15.4597 11.6997 15.4597ZM18.8481 5.97241C18.8481 6.69995 18.2622 7.28101 17.5396 7.28101C16.812 7.28101 16.231 6.69507 16.231 5.97241C16.231 5.24976 16.8169 4.66382 17.5396 4.66382C18.2622 4.66382 18.8481 5.24976 18.8481 5.97241ZM22.564 7.30054C22.481 5.54761 22.0806 3.99487 20.7964 2.71558C19.5171 1.43628 17.9644 1.03589 16.2114 0.947998C14.4048 0.845459 8.98975 0.845459 7.18311 0.947998C5.43506 1.03101 3.88232 1.4314 2.59814 2.71069C1.31396 3.98999 0.918457 5.54272 0.830566 7.29565C0.728027 9.10229 0.728027 14.5173 0.830566 16.324C0.913574 18.0769 1.31396 19.6296 2.59814 20.9089C3.88232 22.1882 5.43018 22.5886 7.18311 22.6765C8.98975 22.7791 14.4048 22.7791 16.2114 22.6765C17.9644 22.5935 19.5171 22.1931 20.7964 20.9089C22.0757 19.6296 22.4761 18.0769 22.564 16.324C22.6665 14.5173 22.6665 9.10718 22.564 7.30054ZM20.23 18.2625C19.8491 19.2195 19.1118 19.9568 18.1499 20.3425C16.7095 20.9138 13.2915 20.782 11.6997 20.782C10.1079 20.782 6.68506 20.9089 5.24951 20.3425C4.29248 19.9617 3.55518 19.2244 3.16943 18.2625C2.59814 16.822 2.72998 13.4041 2.72998 11.8123C2.72998 10.2205 2.60303 6.79761 3.16943 5.36206C3.55029 4.40503 4.2876 3.66772 5.24951 3.28198C6.68994 2.71069 10.1079 2.84253 11.6997 2.84253C13.2915 2.84253 16.7144 2.71558 18.1499 3.28198C19.1069 3.66284 19.8442 4.40015 20.23 5.36206C20.8013 6.80249 20.6694 10.2205 20.6694 11.8123C20.6694 13.4041 20.8013 16.8269 20.23 18.2625Z" fill="white"/>
</svg>