<svg xmlns="http://www.w3.org/2000/svg" fill="none" viewBox="0.5 0 27.01 27">
<path d="M14.006 6.57754C10.1743 6.57754 7.08357 9.66825 7.08357 13.5C7.08357 17.3318 10.1743 20.4225 14.006 20.4225C17.8378 20.4225 20.9285 17.3318 20.9285 13.5C20.9285 9.66825 17.8378 6.57754 14.006 6.57754ZM14.006 18.0005C11.5298 18.0005 9.50552 15.9822 9.50552 13.5C9.50552 11.0178 11.5238 8.9995 14.006 8.9995C16.4882 8.9995 18.5065 11.0178 18.5065 13.5C18.5065 15.9822 16.4822 18.0005 14.006 18.0005ZM22.8263 6.29438C22.8263 7.19207 22.1033 7.90902 21.2117 7.90902C20.314 7.90902 19.597 7.18604 19.597 6.29438C19.597 5.40271 20.32 4.67974 21.2117 4.67974C22.1033 4.67974 22.8263 5.40271 22.8263 6.29438ZM27.4111 7.93311C27.3087 5.77022 26.8147 3.85435 25.2302 2.27586C23.6517 0.697367 21.7358 0.203336 19.5729 0.0948901C17.3437 -0.03163 10.6623 -0.03163 8.43311 0.0948901C6.27625 0.197311 4.36037 0.691342 2.77586 2.26983C1.19134 3.84832 0.703336 5.7642 0.59489 7.92709C0.46837 10.1563 0.46837 16.8377 0.59489 19.0669C0.697311 21.2298 1.19134 23.1457 2.77586 24.7241C4.36037 26.3026 6.27022 26.7967 8.43311 26.9051C10.6623 27.0316 17.3437 27.0316 19.5729 26.9051C21.7358 26.8027 23.6517 26.3087 25.2302 24.7241C26.8087 23.1457 27.3027 21.2298 27.4111 19.0669C27.5377 16.8377 27.5377 10.1623 27.4111 7.93311ZM24.5313 21.4587C24.0614 22.6396 23.1516 23.5493 21.9647 24.0253C20.1874 24.7302 15.9701 24.5675 14.006 24.5675C12.042 24.5675 7.81859 24.7241 6.04731 24.0253C4.86645 23.5553 3.95671 22.6456 3.48075 21.4587C2.77586 19.6814 2.93853 15.4641 2.93853 13.5C2.93853 11.5359 2.78188 7.31256 3.48075 5.54128C3.95069 4.36043 4.86043 3.45069 6.04731 2.97473C7.82461 2.26983 12.042 2.4325 14.006 2.4325C15.9701 2.4325 20.1935 2.27586 21.9647 2.97473C23.1456 3.44466 24.0553 4.3544 24.5313 5.54128C25.2362 7.31859 25.0735 11.5359 25.0735 13.5C25.0735 15.4641 25.2362 19.6874 24.5313 21.4587Z" fill="#E04403"/>
</svg>