<svg xmlns="http://www.w3.org/2000/svg" fill="none" viewBox="0.02 0.06 88.96 99.13">
<path fill-rule="evenodd" clip-rule="evenodd" d="M44.5 45.8125C46.6056 45.8125 48.3125 47.5194 48.3125 49.625V95.375C48.3125 97.4806 46.6056 99.1875 44.5 99.1875C42.3944 99.1875 40.6875 97.4806 40.6875 95.375V49.625C40.6875 47.5194 42.3944 45.8125 44.5 45.8125Z" fill="#E04403"/>
<path fill-rule="evenodd" clip-rule="evenodd" d="M44.4999 12.771C34.7256 12.771 25.3516 16.6538 18.4401 23.5653C12.4332 29.5723 8.71398 37.4393 7.84336 45.8127H81.1565C80.2858 37.4394 76.5665 29.5723 70.56 23.5654C63.6485 16.6538 54.2741 12.771 44.4999 12.771ZM13.0484 18.1737C21.3899 9.83215 32.7033 5.146 44.4999 5.146C56.2963 5.146 67.6101 9.83214 75.9517 18.1737C84.2925 26.5151 88.9791 37.8285 88.9791 49.6252C88.9791 51.7307 87.2722 53.4377 85.1666 53.4377H3.83325C1.72767 53.4377 0.020752 51.7307 0.020752 49.6252C0.020752 37.8286 4.70697 26.5151 13.0484 18.1737Z" fill="#E04403"/>
<path fill-rule="evenodd" clip-rule="evenodd" d="M44.5 0.0625C46.6056 0.0625 48.3125 1.76941 48.3125 3.875V8.95833C48.3125 11.0639 46.6056 12.7708 44.5 12.7708C42.3944 12.7708 40.6875 11.0639 40.6875 8.95833V3.875C40.6875 1.76941 42.3944 0.0625 44.5 0.0625Z" fill="#E04403"/>
</svg>