<svg xmlns="http://www.w3.org/2000/svg" fill="none" viewBox="0.51 0 29 29">
<path d="M6.9972 29H0.984877V9.63818H6.9972V29ZM3.9878 6.99705C2.06526 6.99705 0.505859 5.40461 0.505859 3.48202C0.505859 2.55853 0.872706 1.67287 1.5257 1.01986C2.17869 0.366855 3.06433 0 3.9878 0C4.91127 0 5.79692 0.366855 6.44991 1.01986C7.1029 1.67287 7.46974 2.55853 7.46974 3.48202C7.46974 5.40461 5.9097 6.99705 3.9878 6.99705ZM29.4994 29H23.5V19.5748C23.5 17.3285 23.4547 14.4479 20.3741 14.4479C17.2482 14.4479 16.7692 16.8883 16.7692 19.413V29H10.7633V9.63818H16.5297V12.2793H16.6138C17.4165 10.7581 19.3772 9.15268 22.3025 9.15268C28.3873 9.15268 29.5059 13.1597 29.5059 18.3643V29H29.4994Z" fill="#E04403"/>
</svg>