<svg xmlns="http://www.w3.org/2000/svg" fill="none" viewBox="0.76 0.32 21.87 21.87">
<path d="M5.65381 22.1919H1.11865V7.5874H5.65381V22.1919ZM3.38379 5.59521C1.93359 5.59521 0.757324 4.39404 0.757324 2.94385C0.757324 2.24727 1.03404 1.57921 1.5266 1.08666C2.01916 0.594099 2.68721 0.317383 3.38379 0.317383C4.08037 0.317383 4.74842 0.594099 5.24098 1.08666C5.73354 1.57921 6.01025 2.24727 6.01025 2.94385C6.01025 4.39404 4.8335 5.59521 3.38379 5.59521ZM22.6274 22.1919H18.1021V15.0825C18.1021 13.3882 18.0679 11.2153 15.7441 11.2153C13.3862 11.2153 13.0249 13.0562 13.0249 14.9604V22.1919H8.49463V7.5874H12.8442V9.57959H12.9077C13.5132 8.43213 14.9922 7.22119 17.1987 7.22119C21.7886 7.22119 22.6323 10.2437 22.6323 14.1694V22.1919H22.6274Z" fill="white"/>
</svg>