<svg xmlns="http://www.w3.org/2000/svg" fill="none" viewBox="0.45 0.66 84.75 94.17">
<path fill-rule="evenodd" clip-rule="evenodd" d="M35.7603 70.1074C35.7603 56.4555 46.8271 45.3887 60.479 45.3887C74.1309 45.3887 85.1978 56.4555 85.1978 70.1074C85.1978 83.7593 74.1309 94.8262 60.479 94.8262C46.8271 94.8262 35.7603 83.7593 35.7603 70.1074ZM60.479 52.4512C50.7276 52.4512 42.8228 60.3561 42.8228 70.1074C42.8228 79.8588 50.7276 87.7637 60.479 87.7637C70.2304 87.7637 78.1353 79.8588 78.1353 70.1074C78.1353 60.3561 70.2304 52.4512 60.479 52.4512Z" fill="#E04403"/>
<path fill-rule="evenodd" clip-rule="evenodd" d="M60.479 58.1016C62.4293 58.1016 64.0103 59.6826 64.0103 61.6328V68.2355L67.3558 71.9993C68.6515 73.4569 68.5202 75.6889 67.0625 76.9846C65.6049 78.2803 63.3729 78.149 62.0772 76.6913L57.8397 71.9242C57.2651 71.2778 56.9478 70.443 56.9478 69.5781V61.6328C56.9478 59.6826 58.5287 58.1016 60.479 58.1016Z" fill="#E04403"/>
<path fill-rule="evenodd" clip-rule="evenodd" d="M0.447754 41.8574C0.447754 39.9072 2.02875 38.3262 3.979 38.3262H27.5207C29.4709 38.3262 31.0519 39.9072 31.0519 41.8574C31.0519 43.8077 29.4709 45.3887 27.5207 45.3887H3.979C2.02875 45.3887 0.447754 43.8077 0.447754 41.8574Z" fill="#E04403"/>
<path fill-rule="evenodd" clip-rule="evenodd" d="M0.447754 23.0241C0.447754 15.8731 6.24473 10.0762 13.3957 10.0762H69.8957C77.0468 10.0762 82.8436 15.8732 82.8436 23.0241V32.4408C82.8436 34.391 81.2626 35.972 79.3123 35.972C77.3621 35.972 75.7811 34.391 75.7811 32.4408V23.0241C75.7811 19.7736 73.1462 17.1387 69.8957 17.1387H13.3957C10.1452 17.1387 7.51025 19.7737 7.51025 23.0241V79.5241C7.51025 82.7746 10.1452 85.4095 13.3957 85.4095H27.5207C29.4709 85.4095 31.0519 86.9905 31.0519 88.9408C31.0519 90.891 29.4709 92.472 27.5207 92.472H13.3957C6.24477 92.472 0.447754 86.6752 0.447754 79.5241V23.0241Z" fill="#E04403"/>
<path fill-rule="evenodd" clip-rule="evenodd" d="M55.7708 0.659668C57.721 0.659668 59.302 2.24066 59.302 4.19092V23.0243C59.302 24.9745 57.721 26.5555 55.7708 26.5555C53.8205 26.5555 52.2395 24.9745 52.2395 23.0243V4.19092C52.2395 2.24066 53.8205 0.659668 55.7708 0.659668Z" fill="#E04403"/>
<path fill-rule="evenodd" clip-rule="evenodd" d="M27.5208 0.659668C29.471 0.659668 31.052 2.24066 31.052 4.19092V23.0243C31.052 24.9745 29.471 26.5555 27.5208 26.5555C25.5705 26.5555 23.9895 24.9745 23.9895 23.0243V4.19092C23.9895 2.24066 25.5705 0.659668 27.5208 0.659668Z" fill="#E04403"/>
</svg>