<svg xmlns="http://www.w3.org/2000/svg" fill="none" viewBox="0.55 0.6 67.78 79.18">
<path d="M34.4459 40.3852C38.5074 40.3852 41.812 37.0471 41.812 32.9438C41.812 28.8405 38.5074 25.5024 34.4459 25.5024C30.3838 25.5024 27.0786 28.8405 27.0786 32.9438C27.0786 37.0471 30.3835 40.3852 34.4459 40.3852ZM34.4459 28.6986C36.7629 28.6986 38.6479 30.603 38.6479 32.9438C38.6479 35.2847 36.7629 37.189 34.4459 37.189C32.1283 37.189 30.2433 35.2847 30.2433 32.9438C30.2433 30.603 32.1279 28.6986 34.4459 28.6986Z" fill="url(#paint0_linear_319_1831)"/>
<path d="M68.0844 59.5181L55.7611 40.218C55.2343 33.464 53.3017 26.0629 50.2803 19.3946C46.3899 10.8075 41.0477 4.20875 35.2382 0.813692C34.7481 0.527597 34.144 0.527597 33.6536 0.813692C27.8444 4.20875 22.5022 10.8075 18.6109 19.3946C15.5895 26.0629 13.6575 33.464 13.1307 40.2183L0.80679 59.5181C0.431092 60.1069 0.478108 60.8741 0.923725 61.4111C1.23144 61.7815 1.679 61.9823 2.13654 61.9823C2.34243 61.9823 2.55059 61.9416 2.74875 61.8577L15.8028 56.319C16.57 57.7094 17.4918 58.9704 18.5693 60.0952C18.867 60.4067 19.2772 60.5824 19.7064 60.5824H24.4094C24.5995 64.2122 25.4346 67.7446 26.8536 70.8835C28.4521 74.4192 30.7498 77.3846 33.4986 79.4582C33.7799 79.6698 34.1127 79.7759 34.4456 79.7759C34.7784 79.7759 35.1113 79.6701 35.3922 79.4582C38.141 77.3846 40.4387 74.4195 42.0372 70.8835C43.4562 67.7443 44.2914 64.2122 44.4815 60.5824H49.1851C49.6137 60.5824 50.0241 60.4067 50.3222 60.0952C51.3996 58.97 52.3215 57.7094 53.0887 56.319L66.1421 61.8577C66.3403 61.9416 66.5481 61.9823 66.7537 61.9823C67.2118 61.9823 67.6594 61.7815 67.9671 61.4111C68.4131 60.8744 68.4601 60.1066 68.0844 59.5181ZM34.4462 4.06781C37.8993 6.30157 41.1724 9.84146 44.0043 14.3575H24.8882C27.7194 9.84179 30.9924 6.30189 34.4462 4.06781ZM21.4885 20.7245C21.9844 19.6305 22.5041 18.5737 23.0448 17.5537H45.847C46.3877 18.5734 46.9081 19.6305 47.4033 20.7245C50.7965 28.214 52.743 36.6478 52.743 43.8627C52.743 44.1621 52.7378 44.4573 52.7304 44.7503H16.1614C16.154 44.4576 16.1489 44.1621 16.1489 43.8627C16.1489 36.6478 18.0953 28.214 21.4885 20.7245ZM6.23698 56.9111L13.0627 46.2217C13.239 48.8555 13.7165 51.2543 14.4927 53.4086L6.23698 56.9111ZM34.4462 76.122C30.4885 72.616 27.9511 66.8661 27.5809 60.5824H41.3113C40.9407 66.8664 38.4039 72.616 34.4462 76.122ZM48.493 57.3863H20.3985C19.4418 56.2914 18.6463 55.0444 18.0116 53.6514C18.0116 53.6514 18.0109 53.6498 18.0109 53.6491C18.007 53.6403 18.0022 53.6319 17.9983 53.6231C17.2357 51.9413 16.7076 50.0467 16.4163 47.9464H52.4755C52.1836 50.0539 51.6523 51.954 50.8857 53.6397C50.8844 53.6429 50.8825 53.6462 50.8812 53.6491C50.8806 53.6491 50.8806 53.6495 50.8806 53.6495C50.2458 55.0438 49.4496 56.2907 48.493 57.3863ZM54.3997 53.4086C55.175 51.2543 55.6535 48.8555 55.8291 46.2217L62.6548 56.9111L54.3997 53.4086Z" fill="url(#paint1_linear_319_1831)"/>
<defs>
<linearGradient id="paint0_linear_319_1831" x1="34.4453" y1="45.9158" x2="34.4453" y2="23.296" gradientUnits="userSpaceOnUse">
<stop offset="0.0298671" stop-color="#E24707"/>
<stop offset="1" stop-color="#FF8350"/>
</linearGradient>
<linearGradient id="paint1_linear_319_1831" x1="34.4456" y1="109.199" x2="34.4456" y2="-11.1392" gradientUnits="userSpaceOnUse">
<stop offset="0.0298671" stop-color="#E24707"/>
<stop offset="1" stop-color="#FF8350"/>
</linearGradient>
</defs>
</svg>