<svg xmlns="http://www.w3.org/2000/svg" fill="none" viewBox="0.75 0.75 52.5 52.5">
<path d="M26.9999 0.75002C22.3529 0.744225 17.7879 1.97365 13.7724 4.3124C9.75688 6.65114 6.43512 10.0152 4.14731 14.0599C1.85951 18.1047 0.687872 22.6849 0.752401 27.3314C0.81693 31.9779 2.1153 36.5238 4.51455 40.5034L0.813372 51.6045C0.750893 51.7925 0.733944 51.9926 0.763918 52.1884C0.793892 52.3842 0.869934 52.5701 0.985785 52.7307C1.10164 52.8914 1.25398 53.0223 1.43029 53.1125C1.6066 53.2028 1.80182 53.2499 1.9999 53.25C2.13438 53.2502 2.26798 53.2283 2.3954 53.1853L13.4965 49.4853C16.9636 51.5681 20.8653 52.8212 24.8968 53.1467C28.9283 53.4723 32.9805 52.8615 36.737 51.3621C40.4934 49.8627 43.8524 47.5152 46.5516 44.503C49.2508 41.4909 51.2172 37.8955 52.2972 33.9977C53.3772 30.0999 53.5415 26.0053 52.7774 22.0335C52.0133 18.0617 50.3414 14.3203 47.8923 11.1014C45.4431 7.88261 42.2831 5.27349 38.6589 3.47784C35.0347 1.68219 31.0445 0.748613 26.9999 0.75002ZM26.9999 50.75C22.51 50.7468 18.1137 49.4665 14.3241 47.0586C14.124 46.9319 13.892 46.8646 13.6552 46.8645C13.5207 46.8643 13.3871 46.8862 13.2597 46.9292L3.9749 50.0237L7.0706 40.7402C7.12875 40.5642 7.14731 40.3776 7.12494 40.1935C7.10257 40.0095 7.03983 39.8327 6.9412 39.6758C4.13299 35.2224 2.88528 29.9617 3.39444 24.7215C3.90359 19.4813 6.1407 14.5592 9.75371 10.7297C13.3667 6.90027 18.1505 4.38087 23.3522 3.568C28.5539 2.75514 33.8783 3.69498 38.4874 6.2396C43.0964 8.78423 46.7286 12.7892 48.8121 17.6242C50.8957 22.4592 51.3125 27.8498 49.9968 32.9476C48.6811 38.0454 45.7077 42.561 41.5446 45.7838C37.3814 49.0067 32.2647 50.7537 26.9999 50.75ZM28.2499 40.75C28.2499 40.9972 28.1766 41.2389 28.0392 41.4445C27.9019 41.65 27.7067 41.8103 27.4783 41.9049C27.2498 41.9995 26.9985 42.0242 26.756 41.976C26.5136 41.9278 26.2908 41.8087 26.116 41.6339C25.9412 41.4591 25.8221 41.2364 25.7739 40.9939C25.7257 40.7514 25.7504 40.5001 25.845 40.2717C25.9397 40.0433 26.0999 39.848 26.3054 39.7107C26.511 39.5733 26.7527 39.5 26.9999 39.5C27.3314 39.5 27.6494 39.6317 27.8838 39.8661C28.1182 40.1006 28.2499 40.4185 28.2499 40.75ZM35.6107 20.4241C35.9327 22.2303 35.6825 24.092 34.8951 25.7491C34.1077 27.4062 32.8223 28.776 31.2186 29.6672C30.353 30.0966 29.6199 30.7525 29.0972 31.5652C28.5744 32.3779 28.2817 33.317 28.2499 34.2827C28.2539 34.6258 28.1267 34.9575 27.8944 35.21C27.6621 35.4625 27.3421 35.6168 26.9999 35.6414C26.8418 35.6535 26.6828 35.6331 26.5329 35.5815C26.3829 35.5299 26.2451 35.448 26.128 35.3411C26.0109 35.2342 25.9169 35.1044 25.8519 34.9597C25.7868 34.815 25.7521 34.6586 25.7499 34.5V34.2827C25.7777 32.8687 26.1889 31.4888 26.9397 30.2903C27.6904 29.0917 28.7525 28.1195 30.0126 27.4773C30.9788 26.9459 31.7873 26.1684 32.3559 25.2236C32.9246 24.2788 33.2331 23.2005 33.2503 22.0979C33.2675 20.9953 32.9928 19.9078 32.4539 18.9457C31.915 17.9837 31.1312 17.1813 30.182 16.62C29.2329 16.0588 28.1521 15.7586 27.0494 15.7499C25.9468 15.7413 24.8614 16.0245 23.9036 16.5709C22.9457 17.1172 22.1495 17.9072 21.5956 18.8607C21.0417 19.8143 20.75 20.8973 20.7499 22C20.7499 22.3315 20.6182 22.6495 20.3838 22.8839C20.1494 23.1183 19.8314 23.25 19.4999 23.25C19.1684 23.25 18.8504 23.1183 18.616 22.8839C18.3816 22.6495 18.2499 22.3315 18.2499 22C18.2491 19.8153 19.0654 17.7093 20.5384 16.0959C22.0114 14.4825 24.0346 13.4784 26.2104 13.2809C28.3861 13.0834 30.5571 13.7068 32.2965 15.0286C34.036 16.3504 35.2182 18.275 35.6107 20.4241Z" fill="#E04403"/>
</svg>