<svg xmlns="http://www.w3.org/2000/svg" fill="none" viewBox="0.16 0.04 28.22 22.92">
<path d="M25.4797 5.75118C25.4976 6.00189 25.4976 6.25266 25.4976 6.50338C25.4976 14.1505 19.6772 22.9618 9.03915 22.9618C5.76178 22.9618 2.71726 22.0126 0.15625 20.365C0.621903 20.4187 1.06958 20.4366 1.55315 20.4366C4.25738 20.4366 6.74678 19.5233 8.73469 17.9652C6.1916 17.9115 4.06041 16.2459 3.32613 13.9535C3.68434 14.0072 4.0425 14.0431 4.41862 14.0431C4.93797 14.0431 5.45737 13.9714 5.94088 13.8461C3.29035 13.3088 1.30238 10.9806 1.30238 8.16891V8.0973C2.07244 8.52712 2.96797 8.79576 3.91708 8.83153C2.35899 7.79279 1.33822 6.01981 1.33822 4.01398C1.33822 2.93946 1.62471 1.95446 2.12619 1.09482C4.97375 4.60499 9.25404 6.89731 14.0536 7.14808C13.9641 6.71826 13.9103 6.27058 13.9103 5.82284C13.9103 2.63499 16.4893 0.038208 19.695 0.038208C21.3605 0.038208 22.8649 0.73666 23.9215 1.86493C25.2288 1.61422 26.4825 1.13065 27.5929 0.468029C27.163 1.81124 26.2497 2.93951 25.0498 3.65582C26.2139 3.53052 27.3422 3.20809 28.3809 2.76041C27.593 3.90654 26.6079 4.92731 25.4797 5.75118V5.75118Z" fill="#E04403"/>
</svg>