<svg xmlns="http://www.w3.org/2000/svg" fill="none" viewBox="0.19 0.66 25 20.3">
<path d="M22.625 5.7248C22.6409 5.94688 22.6409 6.16899 22.6409 6.39106C22.6409 13.1645 17.4854 20.9691 8.06284 20.9691C5.15991 20.9691 2.46323 20.1283 0.194824 18.669C0.607275 18.7166 1.00381 18.7324 1.43213 18.7324C3.82739 18.7324 6.03237 17.9234 7.79316 16.5434C5.54063 16.4958 3.65293 15.0205 3.00254 12.99C3.31982 13.0376 3.63706 13.0693 3.97021 13.0693C4.43022 13.0693 4.89028 13.0059 5.31855 12.8949C2.97085 12.4189 1.21001 10.3568 1.21001 7.86631V7.80288C1.89209 8.18359 2.6853 8.42153 3.52598 8.45322C2.1459 7.53315 1.24175 5.96274 1.24175 4.18608C1.24175 3.23433 1.49551 2.36187 1.9397 1.60044C4.46191 4.70957 8.25317 6.73999 12.5044 6.96211C12.4251 6.5814 12.3775 6.18486 12.3775 5.78828C12.3775 2.96465 14.6618 0.664551 17.5012 0.664551C18.9765 0.664551 20.3089 1.2832 21.2449 2.28257C22.4028 2.0605 23.5132 1.63218 24.4968 1.04526C24.116 2.23501 23.307 3.23438 22.2442 3.86885C23.2753 3.75786 24.2747 3.47227 25.1947 3.07573C24.4969 4.09092 23.6244 4.99507 22.625 5.7248Z" fill="white"/>
</svg>